<?xml version="1.0" standalone="no"?>
<!DOCTYPE svg PUBLIC "-//W3C//DTD SVG 20010904//EN"
 "http://www.w3.org/TR/2001/REC-SVG-20010904/DTD/svg10.dtd">
<svg version="1.0" xmlns="http://www.w3.org/2000/svg"
 width="16.000000pt" height="16.000000pt" viewBox="0 0 16.000000 16.000000"
 preserveAspectRatio="xMidYMid meet">
<metadata>
Created by potrace 1.11, written by Peter Selinger 2001-2013
</metadata>
<g transform="translate(0.000000,16.000000) scale(0.004167,-0.004167)"
fill="#000000" stroke="none">
<path d="M1950 3805 c-52 -19 -142 -48 -200 -65 -58 -17 -139 -45 -180 -62
-65 -26 -110 -40 -170 -53 -28 -6 -205 -68 -320 -112 -63 -24 -124 -46 -135
-49 -11 -3 -24 -6 -30 -8 -152 -41 -250 -73 -298 -96 -23 -12 -105 -39 -182
-61 -77 -22 -181 -55 -231 -75 -94 -36 -117 -57 -106 -99 3 -11 4 -87 2 -170
-1 -82 -2 -285 -2 -450 0 -165 0 -370 0 -455 0 -85 0 -202 0 -260 1 -212 0
-371 -2 -610 -2 -135 1 -252 5 -262 5 -9 48 -35 96 -59 49 -24 126 -65 173
-92 47 -27 110 -63 140 -79 30 -17 98 -59 150 -93 52 -34 119 -71 148 -83 30
-12 75 -37 102 -57 26 -19 85 -53 131 -76 46 -23 99 -52 117 -66 18 -13 65
-40 105 -60 39 -20 98 -53 129 -74 31 -22 94 -57 140 -80 46 -22 106 -54 133
-70 72 -42 59 -45 550 121 165 56 383 128 485 160 102 33 221 73 265 89 44 16
136 48 205 70 332 106 546 182 561 200 19 23 23 77 21 251 -2 240 -2 730 0
1416 3 645 2 673 -16 693 -22 24 -492 259 -586 292 -36 13 -89 38 -119 57 -30
19 -82 45 -115 59 -34 13 -69 28 -78 33 -19 11 -245 128 -318 165 -52 26 -81
39 -205 90 -49 20 -122 54 -161 76 -39 21 -80 39 -90 38 -11 0 -62 -15 -114
-34z"/>
</g>
</svg>
